<?xml version="1.0" standalone="no"?>
<!DOCTYPE svg PUBLIC "-//W3C//DTD SVG 20010904//EN"
 "http://www.w3.org/TR/2001/REC-SVG-20010904/DTD/svg10.dtd">
<svg version="1.0" xmlns="http://www.w3.org/2000/svg"
 width="403.000000pt" height="403.000000pt" viewBox="0 0 403.000000 403.000000"
 preserveAspectRatio="xMidYMid meet">
<metadata>
Created by potrace 1.14, written by Peter Selinger 2001-2017
</metadata>
<g transform="translate(0.000000,403.000000) scale(0.100000,-0.100000)"
fill="#000000" stroke="none">
<path d="M1867 4013 c-136 -23 -176 -43 -677 -333 -238 -138 -293 -170 -295
-170 -2 0 -169 -97 -205 -120 -8 -5 -42 -23 -75 -41 -93 -49 -144 -87 -215
-158 -117 -117 -194 -264 -226 -429 -21 -111 -19 -1405 3 -1506 42 -201 168
-397 323 -502 35 -24 563 -331 745 -434 17 -9 113 -65 214 -124 227 -132 280
-155 418 -180 137 -25 325 -3 454 52 82 36 1143 653 1214 707 139 105 230 239
288 422 21 66 21 85 25 783 3 793 3 800 -61 950 -59 137 -169 274 -279 348
-75 51 -1117 652 -1176 678 -137 62 -322 84 -475 57z m221 -1385 c77 -19 138
-67 318 -249 196 -199 215 -230 222 -348 3 -61 0 -88 -18 -136 -21 -54 -42
-80 -209 -248 -223 -226 -264 -252 -392 -251 -129 1 -169 27 -390 251 -166
168 -188 194 -208 248 -19 49 -22 74 -19 135 7 122 25 149 226 352 97 99 197
191 221 206 82 48 164 61 249 40z"/>
</g>
</svg>
