<svg xmlns="http://www.w3.org/2000/svg" xmlns:xlink="http://www.w3.org/1999/xlink" viewBox="0 0 185.82 201.94">
  <defs>
    <linearGradient id="a" x1="-10.13" y1="153.24" x2="145.94" y2="-2.82" gradientUnits="userSpaceOnUse">
      <stop offset="0.1" stop-color="#8155e5"/>
      <stop offset="0.2" stop-color="#7860e7"/>
      <stop offset="0.39" stop-color="#5f7dec"/>
      <stop offset="0.64" stop-color="#36acf4"/>
      <stop offset="0.93" stop-color="#00ebff"/>
    </linearGradient>
    <linearGradient id="c" x1="77.47" y1="19.11" x2="190.83" y2="132.48" gradientUnits="userSpaceOnUse">
      <stop offset="0.15" stop-color="#fd2eb2"/>
      <stop offset="0.25" stop-color="#f42bb8"/>
      <stop offset="0.4" stop-color="#da22c7"/>
      <stop offset="0.59" stop-color="#b113e0"/>
      <stop offset="0.81" stop-color="#7d00ff"/>
    </linearGradient>
    <linearGradient id="d" x1="43.24" y1="21.96" x2="174.63" y2="153.35" gradientUnits="userSpaceOnUse">
      <stop offset="0.02" stop-color="#fe8fd6" stop-opacity="0"/>
      <stop offset="0.06" stop-color="#fe90dc" stop-opacity="0.17"/>
      <stop offset="0.12" stop-color="#fe91e5" stop-opacity="0.39"/>
      <stop offset="0.17" stop-color="#fd92ec" stop-opacity="0.57"/>
      <stop offset="0.23" stop-color="#fd93f2" stop-opacity="0.73"/>
      <stop offset="0.28" stop-color="#fd94f6" stop-opacity="0.85"/>
      <stop offset="0.33" stop-color="#fd95f9" stop-opacity="0.93"/>
      <stop offset="0.38" stop-color="#fd95fb" stop-opacity="0.98"/>
      <stop offset="0.43" stop-color="#fd95fc"/>
      <stop offset="0.52" stop-color="#f48efc"/>
      <stop offset="0.67" stop-color="#da7bfd"/>
      <stop offset="0.86" stop-color="#b15cff"/>
      <stop offset="0.9" stop-color="#a956ff"/>
      <stop offset="0.94" stop-color="#a147ff" stop-opacity="0.49"/>
      <stop offset="0.99" stop-color="#9a38ff" stop-opacity="0"/>
    </linearGradient>
    <linearGradient id="e" x1="28.88" y1="27.02" x2="107.81" y2="106.32" gradientUnits="userSpaceOnUse">
      <stop offset="0.03" stop-color="#004ead"/>
      <stop offset="0.93" stop-color="#3fafea" stop-opacity="0"/>
    </linearGradient>
    <linearGradient id="f" x1="51.37" y1="208.38" x2="163.08" y2="96.66" gradientUnits="userSpaceOnUse">
      <stop offset="0.11" stop-color="#fd5d85"/>
      <stop offset="0.28" stop-color="#fd6a7d"/>
      <stop offset="0.61" stop-color="#fe8b68"/>
      <stop offset="1" stop-color="#ffbb49"/>
    </linearGradient>
    <linearGradient id="g" x1="112.26" y1="106.58" x2="30.73" y2="188.11" gradientUnits="userSpaceOnUse">
      <stop offset="0.28" stop-color="#4637d2"/>
      <stop offset="0.34" stop-color="#4839d2" stop-opacity="0.97"/>
      <stop offset="0.42" stop-color="#4d3ed4" stop-opacity="0.9"/>
      <stop offset="0.5" stop-color="#5547d6" stop-opacity="0.78"/>
      <stop offset="0.59" stop-color="#6053d8" stop-opacity="0.6"/>
      <stop offset="0.69" stop-color="#6f63dc" stop-opacity="0.38"/>
      <stop offset="0.79" stop-color="#8076e0" stop-opacity="0.12"/>
      <stop offset="0.83" stop-color="#887fe2" stop-opacity="0"/>
    </linearGradient>
    <linearGradient id="h" x1="108.83" y1="93.4" x2="171.54" y2="156.11" gradientUnits="userSpaceOnUse">
      <stop offset="0.04" stop-color="#e14534"/>
      <stop offset="0.22" stop-color="#e14735" stop-opacity="0.99"/>
      <stop offset="0.35" stop-color="#e34c38" stop-opacity="0.94"/>
      <stop offset="0.47" stop-color="#e5543d" stop-opacity="0.87"/>
      <stop offset="0.58" stop-color="#e86044" stop-opacity="0.77"/>
      <stop offset="0.68" stop-color="#eb704e" stop-opacity="0.64"/>
      <stop offset="0.78" stop-color="#f08359" stop-opacity="0.48"/>
      <stop offset="0.88" stop-color="#f69a67" stop-opacity="0.29"/>
      <stop offset="0.97" stop-color="#fcb377" stop-opacity="0.07"/>
      <stop offset="1" stop-color="#febc7c" stop-opacity="0"/>
    </linearGradient>
    <linearGradient id="i" x1="46.01" y1="177.15" x2="124.35" y2="98.81" gradientUnits="userSpaceOnUse">
      <stop offset="0.05" stop-color="#fe85a3" stop-opacity="0"/>
      <stop offset="0.05" stop-color="#fe85a3" stop-opacity="0.03"/>
      <stop offset="0.11" stop-color="#fe85a3" stop-opacity="0.32"/>
      <stop offset="0.16" stop-color="#fe85a3" stop-opacity="0.56"/>
      <stop offset="0.2" stop-color="#fe85a3" stop-opacity="0.75"/>
      <stop offset="0.24" stop-color="#fe85a3" stop-opacity="0.89"/>
      <stop offset="0.28" stop-color="#fe85a3" stop-opacity="0.97"/>
      <stop offset="0.3" stop-color="#fe85a3"/>
      <stop offset="0.38" stop-color="#fe91a0"/>
      <stop offset="0.52" stop-color="#ffb298"/>
      <stop offset="0.65" stop-color="#ffd58f"/>
      <stop offset="1" stop-color="#ffd58f" stop-opacity="0"/>
    </linearGradient>
  </defs>
  <g>
    <path d="M165.41,35.53,113.34,5.47a40.92,40.92,0,0,0-40.87,0L20.4,35.53A40.84,40.84,0,0,0,0,70.9V131A40.84,40.84,0,0,0,20.4,166.4l52.07,30.07a40.92,40.92,0,0,0,40.87,0l52.07-30.07c.42-.25.83-.51,1.22-.76A40.74,40.74,0,0,0,185.82,131V70.9A40.85,40.85,0,0,0,165.41,35.53ZM119.49,89.17a16.68,16.68,0,0,1,0,23.6l-14.78,14.77a16.66,16.66,0,0,1-23.6,0L66.33,112.77a16.68,16.68,0,0,1,0-23.6L81.11,74.39a16.68,16.68,0,0,1,23.6,0Z" style="stroke-width: 3px; stroke: #5240ab"/>
    <path d="M72.73,42.41l32,32a16.68,16.68,0,0,0-23.6,0L66.33,89.17a16.68,16.68,0,0,0,0,23.6l14.78,14.77a16.66,16.66,0,0,0,23.6,0l-32,32A43.32,43.32,0,0,1,20.4,166.4,40.84,40.84,0,0,1,0,131V70.9A40.84,40.84,0,0,1,20.4,35.53,43.32,43.32,0,0,1,72.73,42.41Z" style="stroke-width: 3px; stroke: url(#a)"/>
    <path d="M72.73,42.41l32,32a16.68,16.68,0,0,0-23.6,0L66.33,89.17a16.68,16.68,0,0,0,0,23.6l14.78,14.77a16.66,16.66,0,0,0,23.6,0l-32,32A43.32,43.32,0,0,1,20.4,166.4,40.84,40.84,0,0,1,0,131V70.9A40.84,40.84,0,0,1,20.4,35.53,43.32,43.32,0,0,1,72.73,42.41Z" style="stroke-width: 3px; stroke: url(#a)"/>
    <path d="M185.82,70.9V131a40.74,40.74,0,0,1-19.19,34.61,17.66,17.66,0,0,0,2.43-27L104.71,74.39l-32-32A43.32,43.32,0,0,0,20.4,35.53L72.47,5.47a40.92,40.92,0,0,1,40.87,0l52.07,30.06A40.85,40.85,0,0,1,185.82,70.9Z" style="stroke-width: 3px; stroke: url(#c)"/>
    <path d="M176.43,152.89A19.83,19.83,0,0,0,170.67,137L106.32,72.78l-32-32A45.23,45.23,0,0,0,42.1,27.44q-1.66,0-3.33.12v2.3c1.11-.09,2.22-.15,3.33-.15a43.22,43.22,0,0,1,30.63,12.7l32,32,64.35,64.25a17.5,17.5,0,0,1,5,14.85h2.32C176.39,153.29,176.41,153.09,176.43,152.89Z" style="stroke-width: 3px; stroke: url(#d)"/>
    <path d="M104.71,74.39l-32-32a43.28,43.28,0,0,0-45.53-10l-.48.18h0a43.82,43.82,0,0,0-6.32,3,40.84,40.84,0,0,0-5.49,3.84q-.67.54-1.32,1.11a44.37,44.37,0,0,1,49.24,9.25L84.75,71.64a16.67,16.67,0,0,1,20,2.75Z" style="stroke-width: 3px; stroke: url(#e)"/>
    <path d="M169.06,138.64a17.66,17.66,0,0,1-2.43,27c-.39.25-.8.51-1.22.76l-52.07,30.07a40.92,40.92,0,0,1-40.87,0L20.4,166.4a43.32,43.32,0,0,0,52.33-6.87l32-32,14.78-14.77a16.68,16.68,0,0,0,0-23.6Z" style="stroke-width: 3px; stroke: url(#f)"/>
    <path d="M104.71,127.54a16.61,16.61,0,0,1-19.19,3.09l-28.89,28.9A43.17,43.17,0,0,1,34,171.45a43.28,43.28,0,0,0,38.74-11.92Z" style="stroke-width: 3px; stroke: url(#g)"/>
    <path d="M119.49,89.17a16.63,16.63,0,0,1,2.71,19.89l39.42,39.36a18,18,0,0,1,4.67,17.43l.34-.21a17.66,17.66,0,0,0,2.43-27Z" style="stroke-width: 3px; stroke: url(#h)"/>
    <path d="M126.58,99.47h-2.27a16.69,16.69,0,0,1-4.82,13.3l-14.78,14.77-32,32A43.21,43.21,0,0,1,42.1,172.22c-1.11,0-2.22-.05-3.33-.14v2.3q1.66.12,3.33.12a45.27,45.27,0,0,0,32.24-13.36l32-32,14.78-14.78A19,19,0,0,0,126.58,99.47Z" style="stroke-width: 3px; stroke: url(#i)"/>
  </g>
</svg>
